<svg width="10" height="25" viewBox="0 0 10 25" fill="none" xmlns="http://www.w3.org/2000/svg">
<path d="M9.53347 7.93161C9.82352 7.86618 10.0283 7.62196 9.99681 7.34474C9.9488 6.92149 9.83631 6.50605 9.66208 6.1113C9.42347 5.57071 9.07374 5.07951 8.63285 4.66575C8.19196 4.252 7.66854 3.92379 7.09249 3.69987C6.51644 3.47594 5.89904 3.36069 5.27552 3.36069C4.65201 3.36069 4.0346 3.47594 3.45855 3.69987C2.8825 3.92379 2.35909 4.252 1.9182 4.66575C1.47731 5.07951 1.12758 5.57071 0.88897 6.1113C0.714738 6.50605 0.602249 6.92149 0.554233 7.34474C0.522784 7.62196 0.727523 7.86618 1.01757 7.93161C1.91833 8.13482 3.87327 8.53576 5.27552 8.53576C6.67777 8.53576 8.63272 8.13482 9.53347 7.93161Z" fill="#E52F07"/>
<path d="M1.41199 9.21205C0.994797 9.12399 0.588599 9.40644 0.580744 9.80595C0.519543 12.9189 0.277229 23.3078 0.00199238 24.8853C-0.107433 25.5124 4.31556 23.5744 7.10209 18.927C8.90747 15.9159 9.66385 11.6946 9.91786 9.89567C9.97757 9.47282 9.56007 9.1384 9.11431 9.23052C8.10909 9.43824 6.4726 9.73111 5.25354 9.72685C4.03298 9.72258 2.38517 9.41749 1.41199 9.21205Z" fill="#E52F07"/>
<path d="M5.27423 1.60374C4.62389 2.42926 4.53794 3.91787 4.54221 4.70478C4.54385 5.0056 4.79512 5.24507 5.11577 5.27255L5.16672 5.27692C5.57501 5.31192 5.92334 4.9937 5.93397 4.61079C5.95253 3.9419 6.06675 2.9745 6.5305 2.41138C7.08085 1.74308 8.30493 1.42383 9.11006 1.28095C9.50951 1.21007 9.78707 0.841944 9.68837 0.473451L9.68197 0.449522C9.60224 0.151854 9.30147 -0.0443622 8.97796 0.0086411C8.01042 0.167163 6.06443 0.600696 5.27423 1.60374Z" fill="#E52F07"/>
</svg>
