<svg width="24" height="23" viewBox="0 0 24 23" fill="none" xmlns="http://www.w3.org/2000/svg">
<path d="M17.545 4.69097C14.246 2.48009 9.70771 2.48209 6.4117 4.68997C3.62461 6.54787 1.95958 9.65471 1.95958 13.0005C1.95958 14.9894 2.54464 16.9113 3.65066 18.5562C5.51306 21.3381 8.62574 23 11.9779 23C15.33 23 18.4426 21.3381 20.303 18.5572C21.4111 16.9113 21.9961 14.9894 21.9961 13.0005C21.9961 9.65471 20.3311 6.54787 17.545 4.69097ZM18.638 17.4443C17.1483 19.6712 14.6587 21.0001 11.9779 21.0001C9.29696 21.0001 6.80742 19.6712 5.3157 17.4433C4.43109 16.1264 3.96323 14.5904 3.96323 13.0005C3.96323 10.3247 5.29466 7.8398 7.52673 6.35088C8.84614 5.46793 10.3849 5.00095 11.9779 5.00095C13.5708 5.00095 15.1096 5.46793 16.43 6.35288C18.661 7.8398 19.9925 10.3247 19.9925 13.0005C19.9925 14.5904 19.5246 16.1264 18.638 17.4443ZM23.5309 6.92785C23.3656 7.03184 23.1813 7.08084 22.999 7.08084C22.6654 7.08084 22.3398 6.91485 22.1494 6.61287C20.815 4.49298 18.8975 2.87206 16.6033 1.92511C16.0924 1.71413 15.8489 1.12916 16.0603 0.618185C16.2717 0.107212 16.8578 -0.134776 17.3697 0.0762129C20.0496 1.18215 22.2897 3.07505 23.8455 5.54892C24.141 6.0169 23.9998 6.63387 23.5309 6.92785ZM1.84637 6.53987C1.65502 6.83785 1.33143 7.00085 1.00083 7.00085C0.815489 7.00085 0.629149 6.94985 0.461844 6.84285C-0.00400621 6.54487 -0.140255 5.9269 0.15829 5.46093C1.71413 3.03406 3.93618 1.17216 6.58501 0.0772132C7.09595 -0.133776 7.68202 0.108212 7.8944 0.618185C8.10579 1.12816 7.86335 1.71313 7.35242 1.92511C5.08428 2.86307 3.1798 4.45898 1.84637 6.53987ZM12.9797 8.00079V13.0005C12.9797 13.2655 12.8745 13.5205 12.6861 13.7075L9.68066 16.7073C9.48531 16.9023 9.22884 17.0003 8.97237 17.0003C8.7159 17.0003 8.45944 16.9023 8.26408 16.7073C7.87236 16.3164 7.87236 15.6844 8.26408 15.2934L10.976 12.5866V8.00079C10.976 7.44882 11.4248 7.00085 11.9779 7.00085C12.5309 7.00085 12.9797 7.44882 12.9797 8.00079Z" fill="#0036A0"/>
</svg>
