<svg width="24" height="24" viewBox="0 0 24 24" fill="none" xmlns="http://www.w3.org/2000/svg">
<path d="M11.1652 2.65H12.8764C13.3898 2.65 13.732 2.32 13.732 1.825C13.732 1.33 13.3898 1 12.8764 1H11.1652C10.6518 1 10.3096 1.33 10.3096 1.825C10.3096 2.32 10.6518 2.65 11.1652 2.65Z" fill="#0036A0"/>
<path d="M23.9144 12.9626C23.7433 12.7151 23.4011 12.5501 23.1444 12.5501H22.2032C21.7754 8.92009 18.6952 5.29009 14.7594 4.13509C12.9626 3.55759 10.9947 3.55759 9.19786 4.13509C5.34759 5.29009 2.18182 8.92009 1.83957 12.5501H0.898396C0.641711 12.5501 0.299465 12.7151 0.128342 12.9626C-0.0427807 13.2101 -0.0427807 13.5401 0.128342 13.7876C1.3262 16.0976 3.72193 17.5001 6.45989 17.5001H17.6684C20.3209 17.5001 22.8021 16.0976 24 13.7051C24 13.4576 24 13.2101 23.9144 12.9626ZM9.71123 5.70259C11.1658 5.29009 12.7914 5.29009 14.246 5.70259C17.4118 6.61009 20.0642 9.58009 20.492 12.5501H3.5508C3.97861 9.58009 6.54545 6.69259 9.71123 5.70259ZM17.5829 15.8501H6.45989C4.91979 15.8501 3.5508 15.2726 2.52406 14.2001H21.5187C20.492 15.2726 19.123 15.8501 17.5829 15.8501Z" fill="#0036A0"/>
<line x1="3" y1="21" x2="21" y2="21" stroke="#0036A0" stroke-width="2" stroke-linecap="round"/>
</svg>
