<svg width="11" height="25" viewBox="0 0 11 25" fill="none" xmlns="http://www.w3.org/2000/svg">
<path d="M10.4868 7.93161C10.8059 7.86618 11.0311 7.62196 10.9965 7.34474C10.9437 6.92149 10.8199 6.50605 10.6283 6.1113C10.3658 5.57071 9.98111 5.07951 9.49613 4.66575C9.01115 4.252 8.4354 3.92379 7.80174 3.69987C7.16809 3.47594 6.48894 3.36069 5.80308 3.36069C5.11721 3.36069 4.43806 3.47594 3.80441 3.69987C3.17075 3.92379 2.595 4.252 2.11002 4.66575C1.62504 5.07951 1.24034 5.57071 0.977867 6.1113C0.786212 6.50605 0.662474 6.92149 0.609656 7.34474C0.575062 7.62196 0.800276 7.86618 1.11933 7.93161C2.11016 8.13482 4.2606 8.53576 5.80308 8.53576C7.34555 8.53576 9.49599 8.13482 10.4868 7.93161Z" fill="#F8C1B5"/>
<path d="M1.55319 9.21205C1.09428 9.12399 0.647459 9.40644 0.638819 9.80595C0.571497 12.9189 0.304952 23.3078 0.00219161 24.8853C-0.118177 25.5124 4.74711 23.5744 7.81229 18.927C9.79822 15.9159 10.6302 11.6946 10.9096 9.89567C10.9753 9.47282 10.5161 9.1384 10.0257 9.23052C8.91999 9.43824 7.11986 9.73111 5.7789 9.72685C4.43627 9.72258 2.62368 9.41749 1.55319 9.21205Z" fill="#F8C1B5"/>
<path d="M5.80166 1.60374C5.08628 2.42926 4.99174 3.91787 4.99643 4.70478C4.99823 5.0056 5.27463 5.24507 5.62735 5.27255L5.68339 5.27692C6.13251 5.31192 6.51567 4.9937 6.52736 4.61079C6.54778 3.9419 6.67342 2.9745 7.18355 2.41138C7.78894 1.74308 9.13542 1.42383 10.0211 1.28095C10.4605 1.21007 10.7658 0.841944 10.6572 0.473451L10.6502 0.449522C10.5625 0.151854 10.2316 -0.0443622 9.87576 0.0086411C8.81146 0.167163 6.67088 0.600696 5.80166 1.60374Z" fill="#F8C1B5"/>
</svg>
